<svg xmlns="http://www.w3.org/2000/svg" viewBox="0 0 100 100" width="100" height="100">
  <!-- DNA Helix -->
  <g fill="#2196F3">
    <!-- Left strand -->
    <path d="M30,20 Q40,30 30,40 Q20,50 30,60 Q40,70 30,80" fill="none" stroke="#2196F3" stroke-width="4" stroke-linecap="round"/>
    
    <!-- Right strand -->
    <path d="M70,20 Q60,30 70,40 Q80,50 70,60 Q60,70 70,80" fill="none" stroke="#2196F3" stroke-width="4" stroke-linecap="round"/>
    
    <!-- Connecting lines -->
    <line x1="30" y1="20" x2="70" y2="20" stroke="#2196F3" stroke-width="3"/>
    <line x1="30" y1="40" x2="70" y2="40" stroke="#2196F3" stroke-width="3"/>
    <line x1="30" y1="60" x2="70" y2="60" stroke="#2196F3" stroke-width="3"/>
    <line x1="30" y1="80" x2="70" y2="80" stroke="#2196F3" stroke-width="3"/>
    
    <!-- Circles at connection points -->
    <circle cx="30" cy="20" r="4"/>
    <circle cx="70" cy="20" r="4"/>
    <circle cx="30" cy="40" r="4"/>
    <circle cx="70" cy="40" r="4"/>
    <circle cx="30" cy="60" r="4"/>
    <circle cx="70" cy="60" r="4"/>
    <circle cx="30" cy="80" r="4"/>
    <circle cx="70" cy="80" r="4"/>
  </g>
</svg> 